<?xml version="1.0" standalone="no"?>
<!DOCTYPE svg PUBLIC "-//W3C//DTD SVG 20010904//EN"
 "http://www.w3.org/TR/2001/REC-SVG-20010904/DTD/svg10.dtd">
<svg version="1.0" xmlns="http://www.w3.org/2000/svg"
 width="560.000000pt" height="560.000000pt" viewBox="0 0 560.000000 560.000000"
 preserveAspectRatio="xMidYMid meet">
<metadata>
Created by potrace 1.11, written by Peter Selinger 2001-2013
</metadata>
<g transform="translate(0.000000,560.000000) scale(0.100000,-0.100000)"
fill="#000000" stroke="none">
<path d="M2704 5260 c-55 -4 -86 -11 -97 -22 -9 -8 -13 -19 -9 -23 4 -5 2 -5
-4 -2 -7 4 -16 1 -22 -6 -13 -15 -8 -83 6 -80 5 1 9 -5 8 -15 -1 -11 7 -17 22
-18 33 -2 40 -14 8 -14 -23 0 -27 -4 -23 -20 7 -29 0 -25 -18 10 -11 21 -23
30 -41 30 -37 0 -64 -18 -64 -42 0 -12 -5 -37 -12 -55 -9 -24 -18 -33 -35 -33
-13 0 -23 -4 -23 -8 0 -4 -17 -14 -37 -21 -51 -19 -218 -189 -263 -268 -22
-40 -45 -66 -64 -75 -17 -7 -37 -26 -46 -42 -9 -17 -30 -34 -47 -40 -49 -17
-55 -28 -60 -118 -5 -71 -3 -87 12 -101 9 -10 18 -37 20 -64 2 -38 9 -52 33
-72 19 -17 32 -39 36 -63 7 -41 12 -44 90 -53 l56 -7 -6 58 c-11 89 -11 89 14
92 23 3 23 2 17 -55 -6 -57 -6 -58 27 -80 59 -39 66 -39 73 4 4 21 10 49 15
63 5 14 11 37 14 53 5 21 12 27 34 27 24 1 25 2 9 11 -16 9 -18 18 -12 58 10
68 31 105 71 124 41 20 61 21 66 5 3 -7 13 -5 31 7 21 14 39 16 78 12 66 -8
70 -12 57 -48 -16 -47 11 -99 51 -99 35 0 61 31 61 72 0 36 9 40 56 23 21 -8
57 -14 79 -15 35 0 42 -5 55 -32 20 -43 42 -55 77 -42 22 7 30 19 38 51 6 23
13 44 16 47 3 3 27 2 52 -3 33 -6 47 -5 47 3 1 6 9 1 19 -11 11 -13 24 -23 31
-23 31 0 77 -83 65 -119 -4 -13 -2 -21 5 -21 8 0 10 -33 8 -110 -3 -124 -5
-122 72 -95 61 22 60 12 -3 -18 -73 -37 -167 -65 -262 -81 -44 -7 -84 -14 -90
-16 -28 -7 -55 1 -56 18 0 14 -3 13 -16 -5 -14 -21 -23 -23 -112 -23 -62 0
-101 -4 -109 -12 -9 -9 -12 -9 -12 -1 0 7 -8 12 -17 12 -203 9 -364 48 -448
109 -29 21 -59 35 -72 33 -12 -1 -61 5 -109 14 -70 13 -93 14 -116 4 -15 -6
-51 -9 -78 -7 l-49 5 -3 -75 c-3 -83 -3 -83 -81 -103 -38 -9 -48 -17 -53 -38
-3 -14 -8 -33 -10 -42 -3 -9 -30 -32 -62 -52 -82 -50 -150 -143 -186 -249 -24
-72 -39 -217 -25 -234 9 -12 5 -14 -27 -14 -59 0 -65 -8 -62 -79 l3 -63 40
-14 c107 -36 119 -33 388 95 70 34 130 61 132 61 5 0 -16 -74 -25 -85 -4 -5
-39 -69 -78 -141 -84 -154 -99 -207 -143 -486 -32 -202 -32 -208 -14 -228 21
-23 41 -26 52 -6 4 7 25 15 46 18 37 4 50 -5 22 -16 -9 -3 -15 -17 -14 -33 0
-26 1 -27 9 -6 14 35 47 47 76 28 22 -14 24 -14 24 1 0 11 5 14 16 10 9 -3 20
-6 25 -6 5 0 9 -5 9 -11 0 -5 -4 -7 -10 -4 -5 3 -10 2 -10 -4 0 -5 4 -11 9
-13 5 -1 12 -27 16 -57 7 -48 6 -53 -10 -47 -9 3 -29 9 -43 12 -25 6 -24 4 9
-19 53 -37 92 -103 97 -162 8 -102 -45 -234 -90 -219 -15 4 -18 0 -18 -25 0
-87 143 -50 200 52 50 87 24 216 -56 285 l-45 38 12 52 c8 42 15 53 34 58 13
3 30 12 36 20 9 11 14 12 19 3 4 -6 11 17 15 52 3 35 11 81 16 101 5 21 12 75
15 120 8 149 62 428 82 428 5 0 13 12 20 28 17 41 8 -147 -11 -218 -8 -30 -17
-89 -21 -130 -3 -41 -12 -100 -20 -130 -8 -30 -17 -77 -21 -105 -4 -27 -11
-64 -16 -81 -15 -49 -15 -149 0 -165 10 -11 45 -14 150 -13 132 0 132 0 19 -3
l-118 -4 -1 -62 c-1 -34 -2 -66 -4 -72 -1 -5 -3 -23 -3 -38 -1 -17 -6 -26 -13
-22 -6 4 -8 13 -5 21 3 8 1 14 -4 14 -12 0 -13 -57 -1 -64 12 -8 25 -92 22
-151 -2 -46 -7 -90 -11 -90 -2 0 -9 -33 -15 -70 -6 -44 -24 -586 -25 -757 0
-157 2 -164 50 -160 l25 2 -23 -10 c-13 -6 -28 -7 -34 -4 -21 13 -28 -26 -28
-170 l0 -148 388 4 387 3 0 175 c0 96 -2 297 -3 445 l-3 270 53 0 53 0 5 -95
c3 -52 8 -86 11 -75 4 11 7 -9 7 -45 0 -47 -2 -58 -8 -40 -5 15 -7 -35 -5
-118 1 -93 7 -148 14 -155 11 -11 149 -12 740 -7 l24 0 -6 152 c-4 84 -11 284
-16 443 -12 335 -17 391 -36 399 -7 2 -17 26 -21 52 -6 40 -4 49 14 63 19 15
19 23 13 174 -3 86 -4 162 -3 167 2 6 17 10 33 10 27 0 29 3 29 35 0 36 6 40
47 29 17 -5 26 -20 39 -65 l17 -59 46 43 c54 50 103 70 177 71 l52 1 -5 33
c-5 26 0 39 21 61 l26 27 -40 200 c-65 318 -77 351 -190 545 -22 37 -49 89
-60 114 l-20 46 23 -7 c12 -3 33 -14 47 -23 35 -23 80 -42 89 -37 4 3 13 1 21
-5 22 -13 -39 -12 -79 2 -59 21 -45 -1 20 -30 83 -38 213 -75 233 -68 26 10
18 23 -24 42 -22 10 -39 20 -37 22 2 2 34 -11 71 -27 l67 -31 62 17 c87 24 92
30 81 101 l-9 58 -45 5 c-25 3 -40 8 -34 12 7 5 8 27 3 70 -28 212 -105 356
-224 419 -38 20 -47 31 -58 68 -12 43 -14 45 -64 56 -74 17 -82 26 -85 103
l-3 66 -63 -3 c-49 -2 -63 1 -68 13 -3 9 -11 13 -17 9 -6 -4 -8 3 -4 18 3 13
9 67 13 119 4 52 12 103 19 113 9 13 11 43 8 100 -6 87 -16 108 -65 133 -15 8
-35 28 -43 44 -13 24 -22 30 -49 30 -30 0 -37 6 -69 58 -19 31 -58 82 -86 114
-41 45 -51 63 -51 92 0 27 -4 36 -16 36 -14 0 -14 -3 -4 -15 17 -20 5 -32 -15
-15 -8 7 -13 20 -10 30 6 18 -28 55 -43 46 -5 -3 -20 6 -33 21 -18 20 -20 25
-6 20 9 -4 17 -3 17 2 0 15 -72 24 -80 10 -6 -9 -17 -6 -44 10 -30 19 -36 20
-36 7 0 -9 5 -16 12 -16 6 0 3 -9 -7 -20 -24 -27 -50 -27 -35 -1 13 25 13 34
0 26 -5 -3 -10 1 -10 10 0 9 9 19 20 22 24 6 25 13 5 39 -8 10 -15 33 -15 51
0 40 -9 63 -25 63 -6 0 -20 9 -30 20 -10 11 -24 20 -32 20 -7 0 -13 4 -13 9 0
6 -10 8 -22 5 -24 -4 -122 -5 -173 -1 -16 1 -66 0 -111 -3z m382 -107 c5 -20
0 -31 -22 -50 -28 -24 -32 -25 -124 -18 -54 4 -98 12 -102 18 -6 9 -8 9 -8 0
0 -9 -18 -13 -57 -12 -32 1 -48 4 -35 6 12 2 22 12 22 21 0 15 2 15 10 2 7
-12 10 -12 10 -1 0 10 13 12 63 6 87 -11 121 -9 125 4 2 6 10 11 18 11 9 0 14
8 13 18 -2 27 -1 28 41 24 33 -3 41 -9 46 -29z m-331 -113 c-3 -5 -11 -10 -16
-10 -6 0 -7 5 -4 10 3 6 11 10 16 10 6 0 7 -4 4 -10z m-82 -7 c-7 -2 -19 -2
-25 0 -7 3 -2 5 12 5 14 0 19 -2 13 -5z m107 -73 c0 -5 -3 -10 -7 -11 -31 -3
-77 -12 -127 -25 -32 -8 -61 -13 -64 -10 -7 7 8 12 103 35 99 24 95 23 95 11z
m580 -33 c0 -4 -9 -3 -20 3 -11 6 -20 15 -20 20 0 6 9 5 20 -2 11 -7 20 -16
20 -21z m-880 -27 c-9 -6 -19 -5 -25 1 -6 6 -5 13 5 19 9 6 19 5 25 -1 6 -6 5
-13 -5 -19z m-220 -90 c0 -5 -5 -10 -11 -10 -5 0 -7 5 -4 10 3 6 8 10 11 10 2
0 4 -4 4 -10z m316 -64 c7 -19 74 -16 74 3 0 11 3 11 16 1 8 -8 19 -21 24 -31
8 -14 6 -16 -9 -12 -12 3 -20 -2 -23 -15 -4 -13 -17 -21 -39 -25 -19 -3 -43
-7 -53 -9 -26 -4 -57 79 -35 93 21 13 39 11 45 -5z m-74 -51 c6 -14 15 -25 20
-25 4 0 8 -13 8 -30 0 -16 8 -45 17 -65 18 -37 14 -51 -12 -42 -9 4 -15 18
-15 36 0 31 -39 90 -40 60 0 -9 7 -33 15 -53 19 -45 15 -54 -24 -48 -30 4 -31
6 -25 43 l7 39 -37 0 c-45 0 -74 -13 -103 -48 -25 -30 -40 -25 -23 8 6 12 13
31 16 43 7 40 66 71 90 47 5 -5 27 -7 48 -3 35 5 38 8 34 34 -6 36 8 38 24 4z
m121 -79 c9 -7 17 -17 17 -22 0 -6 23 -34 50 -63 53 -56 59 -67 36 -58 -8 3
-16 1 -18 -4 -6 -18 -57 2 -86 32 -27 29 -50 78 -51 112 -1 20 26 22 52 3z
m74 -242 c3 -8 -2 -23 -11 -32 -15 -15 -17 -15 -32 0 -21 21 -11 48 16 48 11
0 23 -7 27 -16z m301 -7 c4 -20 -25 -34 -40 -19 -15 15 -1 44 19 40 10 -2 19
-11 21 -21z m-850 -64 c-2 -44 -7 -58 -18 -58 -19 0 -25 51 -11 88 18 47 32
32 29 -30z m1369 5 c-3 -7 -5 -2 -5 12 0 14 2 19 5 13 2 -7 2 -19 0 -25z m33
-169 c0 -35 4 -49 14 -49 7 0 16 -9 19 -21 4 -16 11 -19 29 -15 22 6 22 6 -2
-8 -34 -19 -96 -24 -92 -8 1 7 5 46 9 87 7 82 23 92 23 14z m-1118 -364 c14
-11 30 -30 37 -43 17 -31 -1 -36 -104 -30 -81 6 -140 27 -116 43 6 3 9 16 5
29 -3 14 1 27 11 36 13 11 15 10 9 -4 -3 -9 -2 -16 4 -16 5 0 12 6 15 14 3 8
18 16 34 18 28 4 58 -10 105 -47z m1308 -42 c-10 -16 -11 -14 -6 7 3 14 7 41
8 60 1 32 2 32 5 -7 2 -24 -1 -51 -7 -60z m-1835 -88 l-6 -80 25 35 c15 19 34
39 44 44 16 9 16 8 0 -11 -22 -24 -24 -40 -4 -23 10 7 8 -3 -6 -32 -12 -24
-25 -56 -29 -73 l-7 -30 -1 28 c-1 15 6 44 14 65 13 33 13 35 0 17 -22 -28
-33 -77 -41 -178 -4 -48 -11 -90 -15 -93 -5 -3 -6 30 -3 73 3 43 8 155 12 248
4 134 7 162 14 130 5 -22 7 -76 3 -120z m804 63 c1 -10 -3 -18 -9 -18 -5 0
-10 17 -9 38 0 30 2 33 9 17 5 -11 9 -28 9 -37z m1118 5 c-3 -10 -5 -2 -5 17
0 19 2 27 5 18 2 -10 2 -26 0 -35z m-462 -53 c-10 -11 -23 -20 -28 -20 -6 0 0
11 13 25 27 29 42 25 15 -5z m146 -7 c-11 -21 -46 -101 -54 -123 -3 -8 -6 -2
-6 14 -1 28 -2 29 -16 10 -23 -30 -19 4 6 46 20 34 70 83 77 76 2 -2 -1 -12
-7 -23z m-1107 -25 c-3 -5 -12 -4 -20 3 -19 16 -18 18 6 12 11 -3 17 -9 14
-15z m906 13 c0 -6 -4 -13 -10 -16 -5 -3 -10 -1 -10 5 0 7 -6 8 -17 2 -21 -11
-46 -5 -37 9 7 12 74 12 74 0z m-800 -16 c0 -8 -2 -15 -4 -15 -2 0 -6 7 -10
15 -3 8 -1 15 4 15 6 0 10 -7 10 -15z m-740 -16 c0 -5 4 -8 9 -5 13 8 30 -16
45 -65 l14 -44 2 45 c2 38 3 41 10 20 11 -35 12 -200 1 -200 -5 0 -11 7 -13
15 -7 33 -30 -5 -37 -61 -8 -69 -15 -84 -41 -84 -13 0 -22 9 -26 28 -10 46
-14 53 -23 47 -5 -3 -12 -1 -16 5 -3 5 5 15 19 22 l26 11 0 139 c0 116 2 138
15 138 8 0 15 -5 15 -11z m305 -96 c-29 -54 -58 -99 -64 -101 -6 -2 10 33 34
77 58 104 68 121 77 121 3 0 -18 -44 -47 -97z m322 78 c1 -14 -4 -19 -18 -18
-31 2 -22 31 11 36 3 1 6 -8 7 -18z m-718 -8 c11 -22 33 -192 25 -204 -3 -5
-14 -14 -24 -19 -15 -8 -18 -7 -14 3 3 8 -2 20 -11 27 -8 7 -15 19 -15 27 0 8
-6 20 -12 27 -18 17 -15 63 6 114 20 46 30 52 45 25z m384 -33 c-15 -28 -36
-60 -46 -73 -28 -36 -10 8 30 71 42 66 53 68 16 2z m1918 -38 c2 -75 1 -80
-19 -103 -21 -25 -28 -24 -37 4 -8 21 -8 21 -12 -5 -2 -16 -8 -28 -12 -28 -13
0 -21 38 -21 98 0 66 22 67 31 2 5 -39 6 -36 7 27 2 74 11 89 45 71 13 -7 17
-22 18 -66z m-1716 -40 c-9 -50 -31 -89 -58 -103 l-22 -12 22 24 c29 32 43 71
43 122 1 35 2 39 11 24 6 -11 8 -34 4 -55z m1409 52 c3 -8 2 -12 -4 -9 -6 3
-10 10 -10 16 0 14 7 11 14 -7z m-2096 -6 c-7 -19 -38 -22 -38 -4 0 10 9 16
21 16 12 0 19 -5 17 -12z m406 -73 c-9 -23 -21 -18 -28 12 -5 17 -3 29 6 34
15 10 31 -23 22 -46z m1796 26 c0 -34 -34 -76 -68 -86 -22 -6 -22 -6 3 19 14
14 30 26 34 26 16 0 21 31 6 36 -8 4 -15 11 -15 16 0 6 7 8 15 4 8 -3 15 -1
15 4 0 6 2 10 5 10 3 0 5 -13 5 -29z m358 17 c19 -19 14 -46 -9 -53 -28 -9
-39 4 -32 38 6 29 21 35 41 15z m-1917 -50 c-5 -13 -16 -30 -25 -37 -10 -9 -9
0 7 27 24 44 33 49 18 10z m1853 6 c-4 -17 -3 -25 3 -21 5 3 10 0 10 -8 0 -8
-4 -12 -9 -9 -13 8 -10 -10 5 -25 10 -11 8 -11 -10 -2 -12 6 -21 17 -18 24 2
6 6 24 9 40 4 15 9 27 11 27 3 0 2 -12 -1 -26z m-1921 -15 c-8 -16 -17 -28
-19 -26 -7 7 15 57 25 57 5 0 3 -14 -6 -31z m1267 -24 c-13 -14 -28 -25 -34
-25 -6 1 3 12 19 25 39 32 45 32 15 0z m-840 1 c0 -3 -4 -8 -10 -11 -5 -3 -10
-1 -10 4 0 6 5 11 10 11 6 0 10 -2 10 -4z m1030 -22 c0 -8 -4 -12 -10 -9 -5 3
-10 10 -10 16 0 5 5 9 10 9 6 0 10 -7 10 -16z m-1233 -10 c-3 -3 -12 -4 -19
-1 -8 3 -5 6 6 6 11 1 17 -2 13 -5z m1280 0 c-3 -3 -12 -4 -19 -1 -8 3 -5 6 6
6 11 1 17 -2 13 -5z m-1798 -31 c0 -5 -4 -17 -9 -28 -8 -18 -9 -17 -9 8 -1 15
4 27 9 27 6 0 10 -3 9 -7z m1621 -37 c0 -2 -19 -19 -42 -36 l-43 -32 39 36
c38 35 46 40 46 32z m-1600 -46 c0 -5 -2 -10 -4 -10 -3 0 -8 5 -11 10 -3 6 -1
10 4 10 6 0 11 -4 11 -10z m170 -20 c0 -11 -6 -20 -14 -20 -9 0 -12 7 -9 20 3
11 9 20 14 20 5 0 9 -9 9 -20z m1535 -37 c-10 -99 -16 -123 -27 -123 -13 0 -5
111 11 153 17 43 23 32 16 -30z m-1560 -50 c-26 -18 -32 -7 -9 18 12 14 20 17
23 8 2 -7 -4 -18 -14 -26z m960 15 c4 -4 13 -4 21 -1 8 3 21 0 29 -7 8 -6 19
-8 26 -4 7 4 10 2 7 -7 -7 -20 19 -42 42 -36 11 3 18 2 15 -3 -3 -4 2 -10 10
-14 8 -3 17 0 21 6 5 7 2 8 -6 3 -8 -5 -11 -3 -8 5 2 8 14 14 27 15 23 2 17
-5 -200 -227 -42 -43 -81 -78 -87 -78 -16 0 -93 80 -87 90 3 6 2 10 -3 10 -6
0 -8 9 -5 19 3 11 11 17 18 15 7 -3 16 0 21 7 5 9 2 10 -9 6 -19 -7 -33 8 -17
18 6 4 8 15 5 26 -4 11 2 30 13 47 10 15 22 39 26 55 11 47 31 62 85 62 27 0
52 -3 56 -7z m-401 -57 c-6 -6 -24 19 -24 34 1 6 7 1 15 -9 8 -11 12 -22 9
-25z m236 -31 c0 -5 -4 -10 -10 -10 -5 0 -10 5 -10 10 0 6 5 10 10 10 6 0 10
-4 10 -10z m-405 -50 c16 -17 16 -20 3 -15 -9 4 -19 13 -22 21 -7 19 -2 18 19
-6z m1162 -102 c-3 -8 -6 -5 -6 6 -1 11 2 17 5 13 3 -3 4 -12 1 -19z m-83
-173 c7 -27 6 -29 -9 -14 -9 9 -13 23 -9 33 8 21 9 19 18 -19z m40 -46 c-8
-14 -24 -10 -24 6 0 9 6 12 15 9 8 -4 12 -10 9 -15z m-554 -42 c0 -2 -10 -12
-22 -23 l-23 -19 19 23 c18 21 26 27 26 19z m-1201 -29 c13 -26 11 -129 -3
-120 -5 3 -7 -2 -3 -11 3 -9 3 -27 -2 -39 -4 -13 -5 -35 0 -51 5 -16 4 -25 -2
-22 -9 6 -13 -8 -10 -33 2 -10 -10 -12 -41 -10 -41 3 -43 4 -41 33 1 17 3 49
4 72 1 23 6 40 10 37 5 -3 8 10 7 28 -1 19 7 57 16 86 19 57 44 69 65 30z
m2188 -17 c12 -26 18 -63 18 -112 0 -66 -2 -74 -20 -77 -11 -2 -17 -1 -13 3 4
4 3 16 -3 27 -6 10 -11 37 -11 59 0 21 -4 42 -9 45 -5 3 -9 23 -9 44 0 32 5
41 27 49 1 1 10 -17 20 -38z m-1507 -90 c18 -14 29 -17 42 -10 12 7 18 6 18
-2 0 -6 7 -9 15 -5 20 7 19 -8 -1 -28 -36 -36 -114 -8 -114 41 0 28 7 29 40 4z
m1118 -40 c-3 -22 -11 -28 -60 -40 -53 -14 -59 -14 -78 4 -25 22 -26 54 -2 61
9 3 26 10 37 14 59 26 108 7 103 -39z m-1305 28 c31 -8 37 -14 37 -37 -1 -17
-10 -34 -24 -44 -22 -16 -28 -16 -80 -1 -53 15 -56 18 -56 47 0 58 16 62 123
35z m1008 -29 c-26 -22 -48 -25 -71 -10 -11 8 -9 9 10 5 15 -4 33 0 45 9 30
23 44 19 16 -4z m589 -80 c0 -5 -4 -10 -10 -10 -5 0 -10 5 -10 10 0 6 5 10 10
10 6 0 10 -4 10 -10z m-345 -45 c0 -39 0 -40 -51 -54 -46 -12 -54 -11 -78 4
-28 18 -34 48 -13 62 24 16 83 31 112 30 28 -2 30 -5 30 -42z m-1220 22 c43
-10 50 -16 53 -38 2 -19 -4 -31 -24 -44 -24 -15 -33 -16 -81 -6 -53 12 -53 13
-53 50 0 21 3 41 7 44 9 9 38 7 98 -6z m185 -276 c0 -4 -11 -6 -25 -3 -14 2
-25 6 -25 8 0 2 11 4 25 4 14 0 25 -4 25 -9z m37 3 c-3 -3 -12 -4 -19 -1 -8 3
-5 6 6 6 11 1 17 -2 13 -5z m311 -66 c15 -13 15 -30 -1 -52 -10 -14 -33 -18
-125 -21 -110 -5 -114 -4 -138 20 -20 20 -23 29 -14 45 9 17 23 20 103 22 108
4 157 -1 175 -14z m338 11 c21 -17 17 -46 -8 -63 -17 -12 -50 -16 -139 -16
-113 0 -117 1 -123 23 -10 37 -7 47 17 56 34 13 237 13 253 0z m-300 -264 c38
-2 72 -4 77 -4 4 -1 7 -30 7 -66 0 -75 -8 -82 -92 -80 -37 1 -48 -2 -51 -17
-3 -10 -10 -18 -16 -18 -7 0 -11 36 -11 108 0 63 4 101 9 93 5 -8 33 -14 77
-16z m712 -13 c26 -33 14 -59 -42 -92 -60 -34 -96 -33 -121 3 -19 28 -9 43 60
82 60 33 80 35 103 7z m-964 -8 c9 -23 7 -112 -2 -118 -5 -3 -19 1 -33 7 -13
7 -64 30 -114 51 -49 21 -106 47 -125 57 l-35 19 152 0 c128 0 152 -2 157 -16z
m155 -57 c0 -34 -3 -69 -7 -77 -9 -20 -31 -24 -48 -9 -11 9 -14 8 -14 -2 0
-12 -2 -12 -9 0 -6 9 -11 10 -15 2 -16 -25 -23 -7 -25 59 l-2 69 42 -14 c56
-20 59 -19 59 16 0 17 4 28 10 24 6 -3 10 -34 9 -68z m229 25 c15 1 32 6 39
11 19 14 33 -2 33 -38 0 -50 -9 -64 -45 -71 -19 -3 -36 -12 -39 -20 -3 -8 -10
-14 -16 -14 -6 0 -9 35 -9 93 1 50 4 79 6 64 4 -24 9 -28 31 -25z m332 39 c0
-14 -158 -91 -186 -91 -12 0 -26 5 -29 10 -12 19 -8 72 6 81 19 12 209 12 209
0z m-1079 -35 c77 -41 86 -70 31 -97 -31 -16 -35 -16 -77 5 -24 13 -50 28 -58
34 -24 20 -2 92 28 92 7 0 41 -15 76 -34z m1099 -51 c10 -50 2 -65 -27 -54
-15 6 -31 5 -43 -1 -30 -16 -36 -12 -35 21 0 25 7 35 35 50 46 24 64 20 70
-16z m-874 -26 c6 -5 9 -21 6 -35 -3 -19 -9 -23 -21 -18 -20 8 -39 8 -68 -1
-21 -7 -23 -4 -23 24 0 18 5 41 10 51 10 18 12 18 48 3 20 -8 42 -19 48 -24z
m861 -71 c4 -7 8 -25 9 -40 1 -24 -1 -26 -18 -17 -13 7 -29 7 -49 0 -27 -9
-29 -9 -29 18 0 15 5 32 12 39 16 16 65 15 75 0z m-877 -18 c22 -12 21 -68 -1
-61 -27 8 -78 7 -73 -1 3 -4 0 -8 -6 -8 -17 0 -3 52 17 68 20 15 38 15 63 2z
m350 1 c0 -6 -4 -13 -10 -16 -5 -3 -10 1 -10 9 0 9 5 16 10 16 6 0 10 -4 10
-9z m143 -343 c-6 -7 -13 -20 -16 -28 -3 -9 -6 -3 -6 13 -1 19 4 27 15 27 12
0 14 -4 7 -12z m-16 -100 c-3 -8 -6 -5 -6 6 -1 11 2 17 5 13 3 -3 4 -12 1 -19z
m0 -50 c-3 -8 -6 -5 -6 6 -1 11 2 17 5 13 3 -3 4 -12 1 -19z m222 -45 c7 -5
-33 -73 -42 -73 -5 0 -7 -7 -3 -15 4 -12 -4 -15 -44 -15 l-49 0 35 70 35 71
32 -18 c18 -10 34 -19 36 -20z m413 -25 l36 -63 -37 -6 c-38 -7 -51 -4 -51 12
0 5 11 7 24 5 17 -3 23 0 20 8 -3 8 -17 11 -36 8 -27 -4 -30 -2 -24 14 4 10 4
15 0 11 -5 -4 -13 3 -20 15 -11 20 -9 25 14 40 15 10 29 18 32 18 3 0 22 -28
42 -62z m-1334 19 c6 -5 12 -16 12 -24 0 -12 -3 -12 -16 1 -20 21 -48 21 -40
1 3 -8 0 -15 -6 -15 -6 0 -8 -3 -4 -7 4 -5 14 0 21 10 14 20 32 6 19 -15 -5
-7 -3 -8 7 -3 7 5 4 -6 -8 -25 -22 -35 -42 -43 -81 -33 l-22 5 20 34 c12 18
28 47 36 63 15 30 31 32 62 8z m425 -6 c16 -28 16 -28 -9 -40 -23 -10 -26 -9
-20 4 3 10 2 13 -5 10 -5 -4 -7 -15 -4 -26 5 -14 3 -17 -9 -13 -22 8 -20 23 6
51 12 13 19 23 15 23 -3 0 -15 -9 -26 -21 -13 -14 -21 -17 -26 -9 -4 6 -5 13
-4 14 20 15 55 36 59 36 3 0 13 -13 23 -29z m41 -70 l15 -29 -34 -4 c-40 -5
-75 5 -57 16 7 4 17 4 22 1 6 -3 10 0 10 7 0 9 3 9 10 -2 7 -12 12 -12 22 -2
9 9 8 12 -6 12 -11 0 -15 5 -10 13 6 10 4 10 -7 0 -18 -18 -34 -16 -19 2 19
23 38 18 54 -14z m-484 -307 c0 -2 -19 -4 -42 -3 -31 0 -37 3 -24 8 18 7 66 3
66 -5z m307 2 c3 -3 -23 -6 -58 -5 -38 1 -55 4 -41 7 28 9 90 7 99 -2z"/>
<path d="M3075 969 c-4 -6 -5 -12 -2 -15 2 -3 7 2 10 11 7 17 1 20 -8 4z"/>
<path d="M3530 1033 c0 -14 1 -24 3 -22 1 2 8 11 15 20 10 14 10 18 -3 23 -11
4 -15 -1 -15 -21z"/>
<path d="M2170 950 c0 -5 7 -10 16 -10 8 0 12 5 9 10 -3 6 -10 10 -16 10 -5 0
-9 -4 -9 -10z"/>
<path d="M3064 4294 c-18 -14 -18 -15 6 -8 31 8 50 24 29 24 -8 0 -24 -7 -35
-16z"/>
<path d="M2390 4103 c0 -49 3 -98 6 -110 5 -20 8 -20 37 -8 18 7 32 17 32 22
-7 113 -31 183 -65 183 -6 0 -10 -36 -10 -87z"/>
<path d="M3016 4166 c7 -19 -26 -26 -121 -26 -121 0 -245 -12 -245 -23 0 -6
63 -8 178 -4 230 8 254 14 216 51 -19 20 -35 21 -28 2z"/>
<path d="M3197 4173 c-4 -3 -7 -22 -6 -42 l1 -36 9 39 c9 39 8 52 -4 39z"/>
<path d="M3170 4015 c0 -8 5 -15 10 -15 6 0 10 7 10 15 0 8 -4 15 -10 15 -5 0
-10 -7 -10 -15z"/>
<path d="M1661 3098 c-52 -21 -101 -36 -108 -34 -7 3 -13 1 -13 -4 0 -6 -11
-10 -25 -10 -14 0 -25 -4 -25 -10 0 -5 6 -10 14 -10 33 0 256 92 256 105 0 3
-1 4 -2 4 -2 -1 -46 -19 -97 -41z"/>
<path d="M2013 2170 c0 -25 2 -35 4 -22 2 12 2 32 0 45 -2 12 -4 2 -4 -23z"/>
<path d="M4145 2140 c-3 -5 -1 -10 4 -10 6 0 11 5 11 10 0 6 -2 10 -4 10 -3 0
-8 -4 -11 -10z"/>
<path d="M4017 2113 c-23 -7 -53 -23 -67 -36 -14 -13 -32 -21 -40 -19 -8 3
-12 1 -7 -3 4 -5 30 -8 57 -6 102 4 176 -67 190 -184 8 -66 29 -111 55 -121
23 -9 72 26 96 70 31 56 32 172 1 232 -18 35 -25 40 -51 38 -17 -1 -31 1 -31
5 0 11 -48 31 -73 31 -21 -1 -21 -1 3 -14 14 -8 28 -12 32 -10 5 3 12 -5 17
-18 5 -13 20 -33 33 -46 l25 -22 -4 32 c-3 25 -2 29 6 18 9 -13 11 -12 12 5 0
14 6 8 20 -20 25 -55 24 -65 -8 -59 -21 4 -24 2 -15 -8 5 -7 10 -17 10 -21 0
-5 4 -12 8 -15 4 -4 4 0 0 8 -4 8 0 6 8 -4 9 -11 16 -32 16 -47 0 -21 -7 -29
-31 -38 -17 -6 -28 -15 -25 -20 4 -5 2 -12 -3 -15 -5 -4 -12 7 -16 24 -4 16
-12 30 -18 30 -8 0 -7 4 1 12 15 15 16 77 1 115 -14 37 -68 93 -90 93 -22 0
-34 17 -17 23 30 10 -57 1 -95 -10z m46 -40 c-7 -2 -21 -2 -30 0 -10 3 -4 5
12 5 17 0 24 -2 18 -5z"/>
<path d="M1622 2072 c-45 -5 -107 -65 -121 -119 -6 -23 -9 -60 -5 -82 6 -40
-5 -127 -13 -103 -5 13 -43 17 -43 3 0 -4 11 -20 24 -34 26 -28 66 -43 91 -34
27 11 55 83 55 142 0 88 36 145 116 184 l39 19 -30 12 c-35 14 -67 18 -113 12z"/>
<path d="M3788 2052 c-51 -54 -68 -93 -68 -159 0 -34 4 -73 9 -86 17 -45 70
-95 118 -111 42 -14 49 -14 70 -1 24 16 29 52 14 104 -6 21 -8 22 -20 7 -43
-52 -121 34 -121 134 0 14 6 50 14 80 8 30 13 56 12 57 -1 2 -14 -10 -28 -25z"/>
<path d="M4280 1879 c0 -5 5 -7 10 -4 6 3 10 8 10 11 0 2 -4 4 -10 4 -5 0 -10
-5 -10 -11z"/>
<path d="M3170 669 c-102 -3 -196 -10 -209 -14 l-23 -8 7 -146 c3 -80 7 -146
8 -147 5 -5 207 -7 484 -5 l303 1 -4 23 c-3 12 -5 76 -5 142 -1 66 -6 127 -11
135 -12 19 -274 28 -550 19z"/>
</g>
</svg>
